<svg width="42" height="42" viewBox="0 0 42 42" fill="none" xmlns="http://www.w3.org/2000/svg">
<path d="M31.2814 24.5C33.2742 24.5 34.9017 26.067 34.9957 28.0374L35 28.2176V28.875C35 32.1611 33.301 34.621 30.6948 36.2077C28.132 37.7679 24.6872 38.5 21 38.5C17.3128 38.5 13.868 37.7679 11.3052 36.2077C8.77794 34.6691 7.1038 32.3093 7.00466 29.1714L7 28.875V28.2178C7 26.224 8.56883 24.5982 10.5385 24.5043L10.7187 24.5H31.2814ZM21 3.5C25.8325 3.5 29.75 7.4175 29.75 12.25C29.75 17.0824 25.8325 21 21 21C16.1676 21 12.25 17.0824 12.25 12.25C12.25 7.4175 16.1676 3.5 21 3.5Z" fill="#FF5964"/>
</svg>
