<svg xmlns="http://www.w3.org/2000/svg" version="1.1" xmlns:xlink="http://www.w3.org/1999/xlink" xmlns:svgjs="http://svgjs.com/svgjs" width="496.2" height="496.2"><svg version="1.1" id="SvgjsSvg1000" xmlns="http://www.w3.org/2000/svg" xmlns:xlink="http://www.w3.org/1999/xlink" x="0px" y="0px" viewBox="0 0 496.2 496.2" style="enable-background:new 0 0 496.2 496.2;" xml:space="preserve">
<path style="fill:#EA4949;" d="M496.2,248.1C496.2,111.1,385.1,0,248.1,0S0,111.1,0,248.1s111.1,248.1,248.1,248.1
	S496.2,385.1,496.2,248.1z"></path>
<rect x="31.951" y="189.697" transform="matrix(-0.4675 -0.884 0.884 -0.4675 38.5226 529.6998)" style="fill:#B9EFBD;" width="293.702" height="127.101"></rect>
<g>
	<path style="fill:#71AD71;" d="M194.1,405.7L61.4,154.9l102.1-54l132.7,250.9L194.1,405.7z M292.3,350.9L162,104.5l-96.8,51.2
		l130.3,246.4L292.3,350.9z"></path>
	<path style="fill:#71AD71;" d="M202.2,297.6c24.5-12.9,33.8-43.3,20.9-67.8c-12.9-24.5-43.3-33.8-67.8-20.9
		c-24.5,12.9-33.8,43.3-20.9,67.8C147.4,301.2,177.7,310.6,202.2,297.6z"></path>
</g>
<path style="fill:#63BD6E;" d="M204.9,238c-1.7-2.1-3.8-3.4-6.4-3.7c-2.6-0.4-5.1,0.1-7.6,1.4c-2.5,1.3-4.3,3-5.3,5s-1.4,4.7-0.9,8
	L204.9,238z M156.4,268.2c1.6,2.2,3.8,3.5,6.8,3.9c2.9,0.4,5.9-0.2,9-1.8c2.7-1.4,4.5-3.1,5.5-5s1.3-4.9,0.9-8.8L156.4,268.2z"></path>
<rect x="64.577" y="176.76" transform="matrix(-0.2401 -0.9707 0.9707 -0.2401 28.9071 503.2419)" style="fill:#B9EFBD;" width="293.686" height="127.094"></rect>
<g>
	<path style="fill:#71AD71;" d="M189.5,391.9l-68.1-275.5l112.1-27.7l68.1,275.5L189.5,391.9z M298.1,362.5l-67-270.6l-106.3,26.3
		l66.9,270.6L298.1,362.5z"></path>
	<path style="fill:#71AD71;" d="M223.5,289c26.9-6.6,43.3-33.8,36.6-60.7c-6.7-26.9-33.8-43.3-60.7-36.6
		c-26.9,6.7-43.3,33.8-36.6,60.7C169.4,279.2,196.6,295.6,223.5,289z"></path>
</g>
<path style="fill:#63BD6E;" d="M240.4,231.8c-1.1-2.4-2.9-4.2-5.3-5.2c-2.4-1-5-1.1-7.7-0.5c-2.7,0.7-4.9,1.9-6.4,3.6
	c-1.5,1.7-2.5,4.2-2.8,7.5L240.4,231.8z M186.2,249.4c1,2.5,2.9,4.3,5.6,5.4c2.7,1.1,5.8,1.2,9.2,0.4c2.9-0.7,5.1-1.9,6.6-3.5
	s2.5-4.4,3-8.3L186.2,249.4z"></path>
<rect x="182.2" y="89.1" style="fill:#B9EFBD;" width="127.1" height="293.7"></rect>
<g>
	<path style="fill:#71AD71;" d="M188,377.8V94.1h115.5v283.8H188V377.8z M300.5,375.3V96.6H191v278.7H300.5z"></path>
	<path style="fill:#71AD71;" d="M245.7,286.1c27.7,0,50.1-22.4,50.1-50.1s-22.5-50.1-50.1-50.1c-27.7,0-50.1,22.4-50.1,50.1
		S218,286.1,245.7,286.1z"></path>
</g>
<path style="fill:#63BD6E;" d="M275.9,234.6c-0.5-2.6-1.8-4.7-3.9-6.3c-2.1-1.5-4.5-2.3-7.3-2.3s-5.2,0.6-7.1,2
	c-1.9,1.3-3.4,3.5-4.5,6.6H275.9z M219,238.7c0.4,2.6,1.8,4.9,4.2,6.6c2.4,1.7,5.3,2.6,8.8,2.6c3,0,5.4-0.6,7.2-1.8s3.4-3.7,4.9-7.4
	L219,238.7L219,238.7z"></path>
<rect x="136.556" y="177.378" transform="matrix(0.2657 -0.9641 0.9641 0.2657 -24.1591 450.1443)" style="fill:#B9EFBD;" width="293.713" height="127.105"></rect>
<g>
	<path style="fill:#71AD71;" d="M190.1,362.4l75.4-273.6l111.3,30.7l-75.4,273.6L190.1,362.4z M299.2,389.8l74.1-268.7L267.7,92
		l-74.1,268.7L299.2,389.8z"></path>
	<path style="fill:#71AD71;" d="M270.1,289.3c26.7,7.4,54.3-8.3,61.7-35c7.4-26.7-8.3-54.3-35-61.6c-26.7-7.4-54.3,8.3-61.7,35
		C227.7,254.3,243.4,281.9,270.1,289.3z"></path>
</g>
<path style="fill:#63BD6E;" d="M312.9,247.7c0.2-2.7-0.5-5-2.1-7.1c-1.6-2-3.8-3.4-6.5-4.2c-2.7-0.7-5.2-0.7-7.3,0
	c-2.2,0.8-4.2,2.5-6.1,5.2L312.9,247.7z M256.9,236.5c-0.3,2.7,0.4,5.1,2.3,7.5c1.8,2.3,4.5,3.9,7.8,4.9c2.9,0.8,5.4,0.8,7.4,0.2
	c2.1-0.7,4.3-2.6,6.7-5.8L256.9,236.5z"></path>
<rect x="168.361" y="190.923" transform="matrix(0.4872 -0.8733 0.8733 0.4872 -60.588 405.768)" style="fill:#B9EFBD;" width="293.702" height="127.101"></rect>
<g>
	<path style="fill:#71AD71;" d="M195.6,350.3l138.3-247.8l100.9,56.3L296.5,406.6L195.6,350.3z M295.1,402.9l135.8-243.4l-95.6-53.4
		L199.5,349.6L295.1,402.9z"></path>
	<path style="fill:#71AD71;" d="M290.8,298.3c24.2,13.5,54.7,4.8,68.2-19.4c13.5-24.2,4.8-54.7-19.4-68.2
		c-24.2-13.5-54.7-4.8-68.2,19.3C257.9,254.3,266.6,284.8,290.8,298.3z"></path>
</g>
<path style="fill:#B9EFBD;" d="M279.3,233l7.2,4c2.1-2.8,4.3-4.7,6.5-5.9s5-1.8,8.3-1.7s6.9,1,10.8,2.9l-2,6.7
	c-4.1-1.7-7.4-2.4-9.9-2.3c-3.5,0.3-6,1.5-7.6,3.7l22.9,12.8c1.9-2.1,4.5-4,7.6-5.6c2.3-1.2,4.9-1.7,7.7-1.4
	c2.8,0.2,5.7,1.2,8.6,2.8c5.1,2.9,8.4,6.7,9.9,11.4c1,3.2,0.6,7-1.1,11.2l3.4,1.9l-2,3.5l-3.4-1.9c-2.4,3.2-5.1,5.3-8.3,6.2
	c-4.1,1.2-8.6,0.8-13.4-1.3l2.4-6.8c3,1.2,5.6,1.7,7.7,1.4c2.1-0.3,4-1.3,5.6-2.9l-20.8-11.6c-2.5,2.5-4.4,4.1-5.5,4.8
	c-2,1.3-4.1,2.2-6.1,2.5c-2.1,0.4-4.2,0.3-6.5-0.1s-4.6-1.3-6.8-2.5c-5-2.8-8.5-6.4-10.3-10.9c-1.9-4.5-1.7-8.9,0.4-13.2l-7.3-4.1
	L279.3,233z M342.2,268.1c0.9-2.6,0.7-5-0.3-7.4c-1.1-2.4-2.8-4.2-5.3-5.6s-4.8-2-7.1-1.7c-2.3,0.2-4.7,1.4-7.2,3.6L342.2,268.1z
	 M290.5,243.9c-1,2.5-0.8,5.1,0.4,7.8c1.2,2.7,3.4,4.9,6.5,6.6c2.6,1.5,5,2.1,7.2,1.9s4.8-1.5,7.8-4.1L290.5,243.9z"></path>
<g>
</g>
<g>
</g>
<g>
</g>
<g>
</g>
<g>
</g>
<g>
</g>
<g>
</g>
<g>
</g>
<g>
</g>
<g>
</g>
<g>
</g>
<g>
</g>
<g>
</g>
<g>
</g>
<g>
</g>
</svg><style>@media (prefers-color-scheme: light) { :root { filter: none; } }
</style></svg>