<svg width="89" height="89" viewBox="0 0 89 89" fill="none" xmlns="http://www.w3.org/2000/svg">
<path d="M56.1088 63.8478C54.5085 63.8478 53.2065 65.1497 53.2065 66.75C53.2065 68.3503 54.5085 69.6522 56.1088 69.6522C57.709 69.6522 59.011 68.3503 59.011 66.75C59.011 65.1497 57.709 63.8478 56.1088 63.8478Z" fill="#C81B25"/>
<path d="M32.8912 40.6304C31.291 40.6304 29.989 41.9324 29.989 43.5327C29.989 45.1329 31.291 46.4349 32.8912 46.4349C34.4915 46.4349 35.7935 45.1329 35.7935 43.5327C35.7935 41.9324 34.4915 40.6304 32.8912 40.6304Z" fill="#C81B25"/>
<path d="M79.3261 0H9.67384C8.07167 0 6.77161 1.29902 6.77161 2.90223V86.0979C6.77161 87.1041 7.29309 88.0373 8.14711 88.5665C9.00495 89.0954 10.0705 89.1418 10.9718 88.6939L21.2824 83.5385L31.593 88.6939C32.4093 89.1019 33.3729 89.1019 34.1892 88.6939L44.5 83.5385L54.8106 88.6939C55.2185 88.898 55.6646 89 56.1086 89C56.5525 89 56.9985 88.898 57.4065 88.6939L67.7171 83.5385L78.0278 88.6939C78.9291 89.1425 79.9946 89.0954 80.8525 88.5665C81.7065 88.0373 82.228 87.1039 82.228 86.0979V2.90223C82.2281 1.29902 80.9282 0 79.3261 0ZM21.2826 11.6088C22.8853 11.6088 24.1848 12.9081 24.1848 14.511C24.1848 16.1139 22.8855 17.4132 21.2826 17.4132C19.6799 17.4132 18.3804 16.1139 18.3804 14.511C18.3804 12.9081 19.6797 11.6088 21.2826 11.6088ZM21.2826 29.0218C19.6799 29.0218 18.3804 27.7225 18.3804 26.1196C18.3804 24.5167 19.6797 23.2174 21.2826 23.2174C22.8853 23.2174 24.1848 24.5167 24.1848 26.1196C24.1848 27.7225 22.8853 29.0218 21.2826 29.0218ZM24.1847 43.5326C24.1847 38.7317 28.0902 34.8261 32.8912 34.8261C37.6922 34.8261 41.5977 38.7317 41.5977 43.5326C41.5977 48.3336 37.6922 52.2392 32.8912 52.2392C28.0902 52.2392 24.1847 48.3336 24.1847 43.5326ZM34.2385 69.5074C33.6717 70.0745 32.9291 70.3578 32.1865 70.3578C31.4439 70.3578 30.7013 70.0743 30.1346 69.5074C29.0011 68.3748 29.0011 66.5372 30.1346 65.4035L54.7596 40.7776C55.8932 39.6441 57.7298 39.6441 58.8636 40.7776C59.9971 41.9103 59.9971 43.7478 58.8636 44.8816L34.2385 69.5074ZM56.1087 75.4565C51.3078 75.4565 47.4022 71.551 47.4022 66.75C47.4022 61.949 51.3078 58.0435 56.1087 58.0435C60.9097 58.0435 64.8153 61.949 64.8153 66.75C64.8153 71.551 60.9097 75.4565 56.1087 75.4565ZM67.7173 29.0218H32.8912C31.289 29.0218 29.989 27.7228 29.989 26.1196C29.989 24.5164 31.289 23.2174 32.8912 23.2174H67.7173C69.3195 23.2174 70.6195 24.5164 70.6195 26.1196C70.6195 27.7228 69.3195 29.0218 67.7173 29.0218ZM67.7173 17.4131H32.8912C31.289 17.4131 29.989 16.114 29.989 14.5108C29.989 12.9076 31.289 11.6088 32.8912 11.6088H67.7173C69.3195 11.6088 70.6195 12.9078 70.6195 14.511C70.6195 16.1142 69.3195 17.4131 67.7173 17.4131Z" fill="#C81B25"/>
</svg>
