<svg width="89" height="89" viewBox="0 0 89 89" fill="none" xmlns="http://www.w3.org/2000/svg">
<path d="M64.3018 24.7654C64.1656 24.5241 63.9604 24.3289 63.7125 24.205C63.4646 24.081 63.1854 24.0339 62.9106 24.0697H20.0117C19.7452 24.0871 19.4847 24.1575 19.2458 24.277C19.0068 24.3965 18.7943 24.5626 18.6205 24.7654C18.3634 25.1885 18.2049 25.664 18.1567 26.1567L25.1132 87.3745C25.141 87.7959 25.3209 88.1928 25.6195 88.4914C25.9181 88.79 26.3151 88.9699 26.7365 88.9977H55.7222C55.9367 89.0028 56.1501 88.9642 56.3493 88.8845C56.5485 88.8047 56.7294 88.6853 56.8812 88.5336C57.0329 88.3818 57.1524 88.2009 57.2322 88.0017C57.3119 87.8024 57.3503 87.5891 57.3452 87.3745L64.3018 26.1567C64.9975 25.6929 64.7656 25.2292 64.3018 24.7654ZM61.0555 27.548L54.5627 85.2875H28.5915L22.0988 27.548H61.0555Z" fill="#35A7FF"/>
<path d="M28.5915 27.548C28.2866 27.5879 27.9776 27.5159 27.7218 27.3454C27.466 27.1748 27.2806 26.9173 27.2001 26.6205L15.1422 2.27253C14.9689 1.9049 14.9462 1.48407 15.0792 1.10001C15.2122 0.715946 15.4901 0.399176 15.8537 0.217415C16.2172 0.0356536 16.6374 0.00334517 17.0244 0.1274C17.4114 0.251456 17.7346 0.521979 17.9247 0.881198L29.9828 25.2292C30.0779 25.4111 30.1355 25.6104 30.1519 25.8151C30.1683 26.0198 30.1432 26.2257 30.0783 26.4205C30.0134 26.6153 29.9098 26.795 29.7739 26.9489C29.6379 27.1028 29.4724 27.2277 29.2871 27.3161C29.1957 27.4041 29.0858 27.4706 28.9654 27.5107C28.8451 27.5508 28.7174 27.5635 28.5915 27.548Z" fill="#35A7FF"/>
<path d="M63.1425 15.9537C60.9886 15.9287 58.8807 16.5773 57.1135 17.8089C55.9208 18.6686 54.9296 19.7776 54.2088 21.0591C53.488 22.3405 53.0549 23.7635 52.9396 25.2292C52.9091 25.4423 52.921 25.6594 52.9744 25.868C53.0278 26.0765 53.1218 26.2726 53.2509 26.4448C53.3801 26.6171 53.5421 26.7623 53.7273 26.872C53.9126 26.9817 54.1177 27.0538 54.3308 27.0843C54.544 27.1147 54.7611 27.1029 54.9697 27.0495C55.1783 26.996 55.3743 26.902 55.5466 26.7728C55.7189 26.6436 55.8639 26.4817 55.9736 26.2964C56.0833 26.1112 56.1554 25.9061 56.1859 25.693C56.266 24.1872 56.9319 22.7724 58.0411 21.7509L61.2874 26.3886L66.1571 33.1132C65.1415 33.5878 64.0315 33.8257 62.9106 33.8089C62.4801 33.8089 62.0672 33.9799 61.7628 34.2844C61.4584 34.5888 61.2874 35.0016 61.2874 35.4321C61.2874 35.8626 61.4584 36.2755 61.7628 36.5799C62.0672 36.8843 62.4801 37.0553 62.9106 37.0553H63.6063C64.9782 37.0612 66.3377 36.7952 67.6064 36.2729C68.875 35.7505 70.0278 34.9822 70.9979 34.012C71.968 33.0419 72.7364 31.8892 73.2587 30.6206C73.7811 29.3519 74.0469 27.9924 74.0411 26.6205C73.9198 23.7906 72.7257 21.1129 70.7014 19.1317C68.6771 17.1504 65.9743 16.0142 63.1425 15.9537ZM68.4759 21.519L63.6063 24.3016L60.3599 19.6639C61.2361 19.2859 62.191 19.1267 63.1425 19.2001C64.1406 19.2147 65.126 19.4272 66.0415 19.8253C66.9569 20.2233 67.7845 20.799 68.4759 21.519ZM68.4759 31.0263L65.4613 26.8524L70.099 24.3016C70.2903 24.9798 70.3687 25.6849 70.331 26.3886C70.2718 28.1034 69.6157 29.7437 68.4759 31.0263Z" fill="#35A7FF"/>
<path d="M62.6788 36.1278C62.5684 35.9864 62.4278 35.8713 62.2673 35.7911C62.1069 35.7109 61.9305 35.6675 61.7512 35.664H21.403C21.0542 35.7218 20.7311 35.8835 20.4756 36.1278C20.2437 36.3597 20.2436 36.5916 20.2436 37.0553L26.0407 87.3745C26.0407 88.0702 26.5045 88.3021 27.2002 88.3021H56.1859C56.462 88.3296 56.738 88.2479 56.9547 88.0746C57.1713 87.9012 57.3115 87.65 57.3453 87.3745L62.9106 37.0553C62.9106 36.5916 62.9106 36.3597 62.6788 36.1278ZM32.3017 44.4757C32.3017 44.1088 32.4105 43.7501 32.6143 43.4451C32.8182 43.14 33.1078 42.9022 33.4468 42.7618C33.7858 42.6214 34.1588 42.5847 34.5186 42.6562C34.8785 42.7278 35.2091 42.9045 35.4686 43.1639C35.728 43.4234 35.9047 43.7539 35.9763 44.1137C36.0478 44.4736 36.0111 44.8466 35.8707 45.1856C35.7303 45.5245 35.4924 45.8143 35.1874 46.0181C34.8823 46.222 34.5236 46.3308 34.1567 46.3308C33.2292 46.0989 32.3017 45.4033 32.3017 44.4757ZM34.6205 78.0991C34.2536 78.0991 33.895 77.9903 33.5899 77.7865C33.2848 77.5826 33.0471 77.2929 32.9067 76.9539C32.7663 76.6149 32.7296 76.2419 32.8011 75.8821C32.8727 75.5222 33.0494 75.1917 33.3088 74.9323C33.5682 74.6728 33.8988 74.4962 34.2586 74.4246C34.6185 74.353 34.9915 74.3897 35.3304 74.5301C35.6694 74.6705 35.9591 74.9083 36.1629 75.2134C36.3668 75.5184 36.4756 75.8771 36.4756 76.244C36.479 76.4886 36.4334 76.7313 36.3414 76.958C36.2494 77.1846 36.1128 77.3905 35.9399 77.5634C35.7669 77.7364 35.5612 77.8729 35.3346 77.9649C35.1079 78.0569 34.8651 78.1026 34.6205 78.0991ZM36.9394 61.8671C36.5725 61.8671 36.2138 61.7583 35.9087 61.5545C35.6037 61.3506 35.366 61.0609 35.2256 60.7219C35.0852 60.383 35.0484 60.01 35.12 59.6501C35.1916 59.2903 35.3682 58.9597 35.6277 58.7003C35.8871 58.4408 36.2176 58.2642 36.5775 58.1926C36.9373 58.121 37.3103 58.1577 37.6493 58.2981C37.9883 58.4385 38.278 58.6763 38.4818 58.9814C38.6856 59.2864 38.7944 59.6451 38.7944 60.012C38.8172 60.2613 38.7851 60.5126 38.6999 60.748C38.6147 60.9835 38.4788 61.1973 38.3018 61.3743C38.1247 61.5513 37.9109 61.6873 37.6755 61.7724C37.4401 61.8576 37.1887 61.8899 36.9394 61.8671ZM45.5192 68.5918C45.1523 68.5918 44.7936 68.483 44.4885 68.2792C44.1835 68.0753 43.9458 67.7856 43.8054 67.4466C43.665 67.1076 43.6282 66.7346 43.6998 66.3748C43.7714 66.0149 43.948 65.6844 44.2075 65.425C44.4669 65.1655 44.7974 64.9889 45.1573 64.9173C45.5171 64.8457 45.8901 64.8824 46.2291 65.0228C46.5681 65.1632 46.8577 65.401 47.0616 65.706C47.2654 66.0111 47.3742 66.3698 47.3742 66.7367C47.3777 66.9812 47.3321 67.224 47.2401 67.4506C47.148 67.6772 47.0115 67.8831 46.8385 68.0561C46.6656 68.229 46.4597 68.3655 46.2331 68.4576C46.0064 68.5496 45.7637 68.5952 45.5192 68.5918ZM50.3887 52.8235C50.0218 52.8235 49.6631 52.7147 49.3581 52.5109C49.053 52.3071 48.8153 52.0174 48.6749 51.6784C48.5345 51.3394 48.4977 50.9664 48.5693 50.6066C48.6409 50.2467 48.8176 49.9162 49.077 49.6568C49.3364 49.3973 49.667 49.2206 50.0268 49.149C50.3867 49.0774 50.7597 49.1142 51.0986 49.2546C51.4376 49.395 51.7274 49.6328 51.9313 49.9378C52.1351 50.2429 52.2439 50.6016 52.2439 50.9685C52.012 52.1279 51.3163 52.8235 50.3887 52.8235Z" fill="#35A7FF"/>
</svg>
