<svg width="89" height="89" viewBox="0 0 89 89" fill="none" xmlns="http://www.w3.org/2000/svg">
<g filter="url(#filter0_d_0_1)">
<path d="M27.2192 30.8607C27.5084 31.15 27.8882 31.2954 28.2679 31.2954C28.6476 31.2954 29.0274 31.15 29.3166 30.8607C29.8966 30.2808 29.8966 29.3433 29.3166 28.7633C27.811 27.2562 27.811 24.8058 29.3166 23.2987C30.6071 22.0082 31.3191 20.2935 31.3191 18.469C31.3191 16.6445 30.6086 14.9297 29.3166 13.6392C28.7366 13.0593 27.7992 13.0593 27.2192 13.6392C26.6392 14.2192 26.6392 15.1567 27.2192 15.7367C27.949 16.4665 28.3524 17.4366 28.3524 18.469C28.3524 19.5014 27.9505 20.4715 27.2192 21.2013C24.5566 23.8639 24.5566 28.1982 27.2192 30.8607Z" fill="#FF5964"/>
<path d="M59.8525 30.8607C60.1417 31.15 60.5215 31.2954 60.9012 31.2954C61.2809 31.2954 61.6607 31.15 61.9499 30.8607C62.5299 30.2808 62.5299 29.3433 61.9499 28.7633C60.4444 27.2562 60.4444 24.8058 61.9499 23.2987C63.2404 22.0082 63.9524 20.2935 63.9524 18.469C63.9524 16.6445 63.2419 14.9297 61.9499 13.6392C61.37 13.0593 60.4325 13.0593 59.8525 13.6392C59.2725 14.2192 59.2725 15.1567 59.8525 15.7367C60.5823 16.4665 60.9858 17.4366 60.9858 18.469C60.9858 19.5014 60.5838 20.4715 59.8525 21.2013C57.1899 23.8639 57.1899 28.1982 59.8525 30.8607Z" fill="#FF5964"/>
<path d="M43.5358 21.9608C43.8251 22.25 44.2048 22.3954 44.5845 22.3954C44.9643 22.3954 45.344 22.25 45.6333 21.9608C46.2132 21.3808 46.2132 20.4433 45.6333 19.8633C44.1277 18.3562 44.1277 15.9058 45.6333 14.3987C46.9238 13.1082 47.6357 11.3935 47.6357 9.56898C47.6357 7.74448 46.9252 6.02975 45.6333 4.73925C45.0533 4.15926 44.1158 4.15926 43.5358 4.73925C42.9558 5.31923 42.9558 6.2567 43.5358 6.83668C44.2656 7.56648 44.6691 8.53658 44.6691 9.56898C44.6691 10.6014 44.2671 11.5715 43.5358 12.3013C40.8732 14.9639 40.8732 19.2982 43.5358 21.9608Z" fill="#FF5964"/>
<path d="M82.5089 64.8528C79.8211 49.0687 67.5169 36.5271 51.8529 33.4892C51.8781 33.2519 51.9167 33.0131 51.9167 32.7772C51.9167 28.6877 48.5896 25.3605 44.5 25.3605C40.4105 25.3605 37.0833 28.6877 37.0833 32.7772C37.0833 33.0131 37.1204 33.2519 37.1471 33.4892C21.4831 36.5271 9.17887 49.0687 6.49107 64.8528C3.3909 66.6076 0 69.1901 0 72.087C0 79.6298 23.0095 84.6954 44.5 84.6954C65.9905 84.6954 89 79.6298 89 72.087C89 69.1901 85.6091 66.6076 82.5089 64.8528ZM40.0589 33.0338C40.053 32.9478 40.05 32.8618 40.05 32.7787C40.05 30.3253 42.0466 28.3287 44.5 28.3287C46.9534 28.3287 48.95 30.3253 48.95 32.7787C48.95 32.8632 48.947 32.9478 48.9411 33.0338C48.8714 33.0264 48.8017 33.0234 48.7334 33.016C48.2232 32.9597 47.7099 32.9196 47.1937 32.884C47.0039 32.8707 46.8155 32.8514 46.6256 32.841C45.9225 32.8024 45.215 32.7802 44.5015 32.7802C43.788 32.7802 43.0805 32.8024 42.3774 32.841C42.1875 32.8514 41.9991 32.8707 41.8092 32.884C41.293 32.9196 40.7798 32.9611 40.2695 33.016C40.1983 33.0234 40.1286 33.0249 40.0589 33.0338ZM37.2702 39.5086C39.6169 38.9805 42.0421 38.712 44.4792 38.712C44.4852 38.712 44.4926 38.712 44.5 38.712C45.3188 38.712 45.9833 39.3766 45.9833 40.1969C45.9833 41.0157 45.3188 41.6787 44.5 41.6787C44.4941 41.6787 44.4866 41.6787 44.4807 41.6787C42.2616 41.6787 40.0574 41.922 37.9229 42.4026C37.8131 42.4278 37.7034 42.4382 37.5951 42.4382C36.9172 42.4382 36.3046 41.9709 36.1488 41.2812C35.9694 40.4817 36.4707 39.6881 37.2702 39.5086ZM28.4058 43.0122C29.1119 42.5954 30.0197 42.8283 30.438 43.5329C30.8563 44.2389 30.6234 45.1482 29.9174 45.565C22.9264 49.7065 17.8326 57.2255 16.2914 65.679C16.1609 66.394 15.5364 66.8954 14.8333 66.8954C14.7443 66.8954 14.6553 66.888 14.5663 66.8702C13.7609 66.7233 13.2254 65.952 13.3723 65.145C15.0677 55.8594 20.688 47.5853 28.4058 43.0122ZM44.5 81.7287C19.1409 81.7287 2.96667 75.3964 2.96667 72.087C2.96667 71.5189 3.66977 70.267 6.02827 68.6338C6.02233 68.7184 6.0253 68.8015 6.01937 68.886C5.96893 69.6989 5.93333 70.5177 5.93333 71.3454V72.5142L7.07105 72.7887C19.3145 75.7271 31.908 77.2164 44.5 77.2164C57.092 77.2164 69.6855 75.7271 81.929 72.7887L83.0667 72.5142V71.3454C83.0667 70.5177 83.0311 69.7004 82.9806 68.886C82.9747 68.8015 82.9777 68.7184 82.9717 68.6338C85.3302 70.267 86.0333 71.5189 86.0333 72.087C86.0333 75.3964 69.8591 81.7287 44.5 81.7287Z" fill="#FF5964"/>
</g>
<defs>
<filter id="filter0_d_0_1" x="-59" y="-39" width="213" height="195" filterUnits="userSpaceOnUse" color-interpolation-filters="sRGB">
<feFlood flood-opacity="0" result="BackgroundImageFix"/>
<feColorMatrix in="SourceAlpha" type="matrix" values="0 0 0 0 0 0 0 0 0 0 0 0 0 0 0 0 0 0 127 0" result="hardAlpha"/>
<feOffset dy="4"/>
<feGaussianBlur stdDeviation="2"/>
<feComposite in2="hardAlpha" operator="out"/>
<feColorMatrix type="matrix" values="0 0 0 0 0 0 0 0 0 0 0 0 0 0 0 0 0 0 0.25 0"/>
<feBlend mode="normal" in2="BackgroundImageFix" result="effect1_dropShadow_0_1"/>
<feBlend mode="normal" in="SourceGraphic" in2="effect1_dropShadow_0_1" result="shape"/>
</filter>
</defs>
</svg>
