<svg width="77" height="89" viewBox="0 0 77 89" fill="none" xmlns="http://www.w3.org/2000/svg">
<path d="M25.8994 9.33144C25.8994 4.56195 29.766 0.695312 34.5355 0.695312C39.305 0.695312 43.1716 4.56195 43.1716 9.33144C43.1716 14.1009 39.305 17.9676 34.5355 17.9676C29.766 17.9676 25.8994 14.1009 25.8994 9.33144ZM67.5368 40.3424L71.5925 19.2574L67.7377 18.5158L63.9924 37.987H54.0543C54.0932 37.7569 54.119 37.5225 54.1204 37.2816C54.1315 34.8967 52.2072 32.9547 49.8223 32.9436L32.7857 32.8653L28.1275 20.3793C27.2656 17.1624 25.1237 14.9162 21.3809 14.9162C17.3922 14.9162 14.7166 18.5422 13.3378 22.2851C10.59 29.7434 8.62745 42.3049 9.42323 50.4627C9.85398 54.2733 10.8764 57.398 13.455 58.7918H6.27207V32.6223H0.776672V88.2331H6.27242V64.2879H32.185L28.5714 82.1908C28.0138 84.9536 29.8014 87.6452 32.5639 88.2028C32.9046 88.2713 33.2443 88.3047 33.5791 88.3047C35.9581 88.3047 38.0871 86.6321 38.5759 84.2103L41.7577 68.4469L46.159 80.2509C46.9246 82.3041 48.8714 83.5727 50.9414 83.5727C51.5338 83.5727 52.1359 83.4688 52.7235 83.2494C55.3643 82.2649 56.7069 79.3258 55.722 76.685L46.7754 52.6915C46.0311 50.6949 44.1245 49.3714 41.9941 49.3714H28.6267L28.6205 46.231H69.8643V88.2334H75.3601V40.3424H67.5368Z" fill="#3BBC26"/>
</svg>
