<svg width="89" height="89" viewBox="0 0 89 89" fill="none" xmlns="http://www.w3.org/2000/svg">
<path d="M57.85 80.1H31.15V84.55C31.15 85.7302 30.6812 86.8621 29.8466 87.6966C29.0121 88.5312 27.8802 89 26.7 89H22.25C21.0698 89 19.9379 88.5312 19.1034 87.6966C18.2688 86.8621 17.8 85.7302 17.8 84.55V80.1C15.4396 80.1 13.1758 79.1623 11.5067 77.4932C9.83767 75.8242 8.89999 73.5604 8.89999 71.2V8.9C8.89999 4.005 12.905 0 17.8 0H71.2C73.5604 0 75.8242 0.937676 77.4932 2.60675C79.1623 4.27582 80.1 6.53957 80.1 8.9V71.2C80.1 73.5604 79.1623 75.8242 77.4932 77.4932C75.8242 79.1623 73.5604 80.1 71.2 80.1V84.55C71.2 85.7302 70.7312 86.8621 69.8966 87.6966C69.0621 88.5312 67.9302 89 66.75 89H62.3C61.1198 89 59.9879 88.5312 59.1534 87.6966C58.3188 86.8621 57.85 85.7302 57.85 84.55V80.1ZM17.8 22.25V48.95H40.05V22.25H17.8ZM48.95 22.25V48.95H71.2V22.25H48.95ZM22.25 8.9V13.35H66.75V8.9H22.25ZM24.475 71.2C26.2453 71.2 27.9431 70.4967 29.1949 69.2449C30.4467 67.9931 31.15 66.2953 31.15 64.525C31.15 62.7547 30.4467 61.0569 29.1949 59.8051C27.9431 58.5533 26.2453 57.85 24.475 57.85C22.7047 57.85 21.0069 58.5533 19.7551 59.8051C18.5032 61.0569 17.8 62.7547 17.8 64.525C17.8 66.2953 18.5032 67.9931 19.7551 69.2449C21.0069 70.4967 22.7047 71.2 24.475 71.2ZM64.525 71.2C66.2953 71.2 67.9931 70.4967 69.2449 69.2449C70.4967 67.9931 71.2 66.2953 71.2 64.525C71.2 62.7547 70.4967 61.0569 69.2449 59.8051C67.9931 58.5533 66.2953 57.85 64.525 57.85C62.7547 57.85 61.0569 58.5533 59.8051 59.8051C58.5532 61.0569 57.85 62.7547 57.85 64.525C57.85 66.2953 58.5532 67.9931 59.8051 69.2449C61.0569 70.4967 62.7547 71.2 64.525 71.2Z" fill="#38618C"/>
</svg>
